<mxfile host="app.diagrams.net" modified="2021-08-18T10:53:59.736Z" agent="5.0 (Windows NT 10.0; Win64; x64) AppleWebKit/537.36 (KHTML, like Gecko) Chrome/92.0.4515.131 Safari/537.36" etag="mIOc69SxY6or3Kgvf3uC" version="14.9.7" type="github">
  <diagram id="6wFEmLDqjUKAB6pb414x" name="Page-1">
    <mxGraphModel dx="948" dy="588" grid="1" gridSize="10" guides="1" tooltips="1" connect="1" arrows="1" fold="1" page="1" pageScale="1" pageWidth="827" pageHeight="1169" math="0" shadow="0">
      <root>
        <mxCell id="0" />
        <mxCell id="1" parent="0" />
        <mxCell id="DneQPZvHQnu6ExtlDrkD-12" value="Actions Processor" style="shape=umlLifeline;perimeter=lifelinePerimeter;whiteSpace=wrap;html=1;container=1;collapsible=0;recursiveResize=0;outlineConnect=0;fillColor=#ffe6cc;strokeColor=#d79b00;" vertex="1" parent="1">
          <mxGeometry x="320" y="40" width="160" height="520" as="geometry" />
        </mxCell>
        <mxCell id="DneQPZvHQnu6ExtlDrkD-13" value="" style="html=1;points=[];perimeter=orthogonalPerimeter;fillColor=#fff2cc;strokeColor=#d6b656;" vertex="1" parent="DneQPZvHQnu6ExtlDrkD-12">
          <mxGeometry x="75" y="160" width="10" height="160" as="geometry" />
        </mxCell>
        <mxCell id="DneQPZvHQnu6ExtlDrkD-1" value="Proposal Auto Update Handler" style="shape=umlLifeline;perimeter=lifelinePerimeter;whiteSpace=wrap;html=1;container=1;collapsible=0;recursiveResize=0;outlineConnect=0;fillColor=#ffe6cc;strokeColor=#d79b00;" vertex="1" parent="1">
          <mxGeometry x="120" y="40" width="160" height="520" as="geometry" />
        </mxCell>
        <mxCell id="DneQPZvHQnu6ExtlDrkD-3" value="" style="html=1;points=[];perimeter=orthogonalPerimeter;fillColor=#fff2cc;strokeColor=#d6b656;" vertex="1" parent="DneQPZvHQnu6ExtlDrkD-1">
          <mxGeometry x="75" y="80" width="10" height="380" as="geometry" />
        </mxCell>
        <mxCell id="DneQPZvHQnu6ExtlDrkD-15" value="" style="html=1;points=[];perimeter=orthogonalPerimeter;fillColor=#f8cecc;strokeColor=#b85450;" vertex="1" parent="DneQPZvHQnu6ExtlDrkD-1">
          <mxGeometry x="80" y="390" width="10" height="40" as="geometry" />
        </mxCell>
        <mxCell id="DneQPZvHQnu6ExtlDrkD-16" value="Calculate Decision Priority" style="edgeStyle=orthogonalEdgeStyle;html=1;align=left;spacingLeft=2;endArrow=block;rounded=0;entryX=1;entryY=0;" edge="1" target="DneQPZvHQnu6ExtlDrkD-15" parent="DneQPZvHQnu6ExtlDrkD-1" source="DneQPZvHQnu6ExtlDrkD-3">
          <mxGeometry x="-0.1111" y="-15" relative="1" as="geometry">
            <mxPoint x="85" y="200" as="sourcePoint" />
            <Array as="points">
              <mxPoint x="115" y="360" />
              <mxPoint x="115" y="390" />
            </Array>
            <mxPoint as="offset" />
          </mxGeometry>
        </mxCell>
        <mxCell id="DneQPZvHQnu6ExtlDrkD-20" value="" style="html=1;points=[];perimeter=orthogonalPerimeter;fillColor=#f8cecc;strokeColor=#b85450;" vertex="1" parent="DneQPZvHQnu6ExtlDrkD-1">
          <mxGeometry x="80" y="140" width="10" height="180" as="geometry" />
        </mxCell>
        <mxCell id="DneQPZvHQnu6ExtlDrkD-21" value="loop List&amp;lt;ActionProcessor&amp;gt;" style="edgeStyle=orthogonalEdgeStyle;html=1;align=left;spacingLeft=2;endArrow=block;rounded=0;entryX=1;entryY=0;" edge="1" target="DneQPZvHQnu6ExtlDrkD-20" parent="DneQPZvHQnu6ExtlDrkD-1" source="DneQPZvHQnu6ExtlDrkD-3">
          <mxGeometry x="-0.8065" y="-10" relative="1" as="geometry">
            <mxPoint x="120" y="145" as="sourcePoint" />
            <Array as="points">
              <mxPoint x="120" y="110" />
              <mxPoint x="120" y="140" />
            </Array>
            <mxPoint as="offset" />
          </mxGeometry>
        </mxCell>
        <mxCell id="DneQPZvHQnu6ExtlDrkD-2" value="process(ProposalContext)" style="html=1;verticalAlign=bottom;startArrow=circle;startFill=1;endArrow=open;startSize=6;endSize=8;" edge="1" parent="1" target="DneQPZvHQnu6ExtlDrkD-3">
          <mxGeometry width="80" relative="1" as="geometry">
            <mxPoint x="40" y="120" as="sourcePoint" />
            <mxPoint x="120" y="120" as="targetPoint" />
          </mxGeometry>
        </mxCell>
        <mxCell id="DneQPZvHQnu6ExtlDrkD-6" value="return List&amp;lt;DecisionAction&amp;gt;" style="html=1;verticalAlign=bottom;endArrow=open;dashed=1;endSize=8;" edge="1" parent="1" source="DneQPZvHQnu6ExtlDrkD-3">
          <mxGeometry relative="1" as="geometry">
            <mxPoint x="120" y="240" as="sourcePoint" />
            <mxPoint x="40" y="500" as="targetPoint" />
          </mxGeometry>
        </mxCell>
        <mxCell id="DneQPZvHQnu6ExtlDrkD-7" value="Product" style="shape=umlLifeline;perimeter=lifelinePerimeter;whiteSpace=wrap;html=1;container=1;collapsible=0;recursiveResize=0;outlineConnect=0;fillColor=#e1d5e7;strokeColor=#9673a6;" vertex="1" parent="1">
          <mxGeometry x="640" y="40" width="80" height="520" as="geometry" />
        </mxCell>
        <mxCell id="DneQPZvHQnu6ExtlDrkD-8" value="" style="html=1;points=[];perimeter=orthogonalPerimeter;fillColor=#e1d5e7;strokeColor=#9673a6;" vertex="1" parent="DneQPZvHQnu6ExtlDrkD-7">
          <mxGeometry x="35" y="170" width="10" height="40" as="geometry" />
        </mxCell>
        <mxCell id="DneQPZvHQnu6ExtlDrkD-10" value="getItemAttributesChangeLogs(vendorId, proposalId)" style="html=1;verticalAlign=bottom;endArrow=block;" edge="1" parent="1" source="DneQPZvHQnu6ExtlDrkD-13" target="DneQPZvHQnu6ExtlDrkD-8">
          <mxGeometry width="80" relative="1" as="geometry">
            <mxPoint x="220" y="140" as="sourcePoint" />
            <mxPoint x="300" y="140" as="targetPoint" />
            <Array as="points">
              <mxPoint x="480" y="210" />
            </Array>
          </mxGeometry>
        </mxCell>
        <mxCell id="DneQPZvHQnu6ExtlDrkD-11" value="return List&amp;lt;ItemAttributesChangeLogModel&amp;gt;" style="html=1;verticalAlign=bottom;endArrow=open;dashed=1;endSize=8;" edge="1" parent="1" source="DneQPZvHQnu6ExtlDrkD-8" target="DneQPZvHQnu6ExtlDrkD-13">
          <mxGeometry relative="1" as="geometry">
            <mxPoint x="330" y="160" as="sourcePoint" />
            <mxPoint x="250" y="160" as="targetPoint" />
            <Array as="points">
              <mxPoint x="460" y="250" />
            </Array>
          </mxGeometry>
        </mxCell>
        <mxCell id="DneQPZvHQnu6ExtlDrkD-14" value="process(ProposalContext)" style="html=1;verticalAlign=bottom;endArrow=block;" edge="1" parent="1" source="DneQPZvHQnu6ExtlDrkD-20" target="DneQPZvHQnu6ExtlDrkD-13">
          <mxGeometry width="80" relative="1" as="geometry">
            <mxPoint x="230" y="200" as="sourcePoint" />
            <mxPoint x="310" y="200" as="targetPoint" />
            <Array as="points">
              <mxPoint x="270" y="200" />
            </Array>
          </mxGeometry>
        </mxCell>
        <mxCell id="DneQPZvHQnu6ExtlDrkD-17" value="List&amp;lt;DecisionActions&amp;gt;" style="html=1;verticalAlign=bottom;endArrow=open;dashed=1;endSize=8;" edge="1" parent="1" source="DneQPZvHQnu6ExtlDrkD-13" target="DneQPZvHQnu6ExtlDrkD-20">
          <mxGeometry relative="1" as="geometry">
            <mxPoint x="360" y="210" as="sourcePoint" />
            <mxPoint x="280" y="210" as="targetPoint" />
            <Array as="points">
              <mxPoint x="260" y="350" />
            </Array>
          </mxGeometry>
        </mxCell>
        <mxCell id="DneQPZvHQnu6ExtlDrkD-18" value="" style="html=1;points=[];perimeter=orthogonalPerimeter;fillColor=#f8cecc;strokeColor=#b85450;" vertex="1" parent="1">
          <mxGeometry x="400" y="300" width="10" height="40" as="geometry" />
        </mxCell>
        <mxCell id="DneQPZvHQnu6ExtlDrkD-19" value="call Actions" style="edgeStyle=orthogonalEdgeStyle;html=1;align=left;spacingLeft=2;endArrow=block;rounded=0;entryX=1;entryY=0;" edge="1" target="DneQPZvHQnu6ExtlDrkD-18" parent="1" source="DneQPZvHQnu6ExtlDrkD-13">
          <mxGeometry x="0.7895" y="-15" relative="1" as="geometry">
            <mxPoint x="450" y="210" as="sourcePoint" />
            <Array as="points">
              <mxPoint x="440" y="270" />
              <mxPoint x="440" y="300" />
            </Array>
            <mxPoint as="offset" />
          </mxGeometry>
        </mxCell>
      </root>
    </mxGraphModel>
  </diagram>
</mxfile>
